<?xml version="1.0" encoding="utf-8"?>
<!-- Generator: Adobe Illustrator 16.0.0, SVG Export Plug-In . SVG Version: 6.00 Build 0)  -->
<!DOCTYPE svg PUBLIC "-//W3C//DTD SVG 1.1//EN" "http://www.w3.org/Graphics/SVG/1.1/DTD/svg11.dtd">
<svg version="1.1" id="Layer_1" xmlns="http://www.w3.org/2000/svg" xmlns:xlink="http://www.w3.org/1999/xlink" x="0px" y="0px"
	 width="18px" height="18px" viewBox="297 387 18 18" enable-background="new 297 387 18 18" xml:space="preserve">
<path fill="#C74135" d="M306.025,390.719c1.743,0,3.32,0.895,4.225,2.127l2.143-2.158c-1.281-1.666-3.748-2.987-6.367-2.987
	c-4.587,0-8.35,3.712-8.35,8.299s3.762,8.299,8.35,8.299c3.803,0,7.001-2.55,7.981-6.035c0.212-0.725,0.317-1.479,0.317-2.264
	v-0.754h-7.545v3.017h3.999c-0.83,1.78-2.656,3.019-4.753,3.019c-2.913,0-5.332-2.369-5.332-5.281S303.113,390.719,306.025,390.719z
	"/>
</svg>
