<?xml version="1.0" encoding="utf-8"?>
<!-- Generator: Adobe Illustrator 16.0.0, SVG Export Plug-In . SVG Version: 6.00 Build 0)  -->
<!DOCTYPE svg PUBLIC "-//W3C//DTD SVG 1.1//EN" "http://www.w3.org/Graphics/SVG/1.1/DTD/svg11.dtd">
<svg version="1.1" id="Layer_1" xmlns="http://www.w3.org/2000/svg" xmlns:xlink="http://www.w3.org/1999/xlink" x="0px" y="0px"
	 width="18px" height="18px" viewBox="297 387 18 18" enable-background="new 297 387 18 18" xml:space="preserve">
<g>
	<path id="Facebook" fill="#5D82C8" d="M303.634,390.529c0,0.45,0,2.459,0,2.459h-1.801v3.006h1.801v8.934h3.701v-8.934h2.483
		c0,0,0.232-1.441,0.345-3.018c-0.323,0-2.814,0-2.814,0s0-1.749,0-2.056c0-0.307,0.403-0.72,0.802-0.72s1.238,0,2.017,0
		c0-0.41,0-1.824,0-3.13c-1.038,0-2.221,0-2.741,0C303.543,387.071,303.634,390.08,303.634,390.529z"/>
</g>
</svg>
